<svg width="120" height="120" viewBox="0 0 120 120" fill="none" xmlns="http://www.w3.org/2000/svg">
<circle opacity="0.12" cx="60.0001" cy="59.9998" r="59.9998" fill="#585886"/>
<circle opacity="0.12" cx="60" cy="59.9999" r="32.6732" fill="#585886"/>
<path fill-rule="evenodd" clip-rule="evenodd" d="M38.8148 27.768C37.8031 26.5804 37.1184 25.1251 37.2328 23.4944C37.5625 18.7958 44.1031 19.8294 45.3754 22.2008C46.6477 24.5723 46.4965 30.5877 44.8522 31.0115C44.1964 31.1806 42.7995 30.7665 41.3777 29.9095L42.2701 36.223H37.0008L38.8148 27.768Z" fill="#B28B67"/>
<path fill-rule="evenodd" clip-rule="evenodd" d="M47.7096 18.9134C47.6005 18.5299 47.307 18.2015 46.9115 18.1041C46.8155 18.0804 46.7165 18.0709 46.6178 18.0749C46.5824 18.0763 46.5725 18.0865 46.5559 18.0617C46.5436 18.0434 46.5434 17.9985 46.5383 17.977C46.5226 17.9099 46.5029 17.8436 46.4787 17.7791C46.3959 17.559 46.2568 17.3643 46.0892 17.2002C45.7756 16.8933 45.3518 16.6814 44.9116 16.6431C44.6707 16.6221 44.4315 16.6613 44.2037 16.7397C44.0858 16.7802 43.9714 16.8308 43.86 16.8866C43.8265 16.9034 43.7177 16.9858 43.684 16.9804C43.6469 16.9745 43.5722 16.8822 43.542 16.859C43.1684 16.5724 42.7071 16.4597 42.2418 16.4631C41.7166 16.467 41.2109 16.4933 40.7729 16.8134C40.6802 16.8812 40.5919 16.9554 40.5078 17.0336C40.4636 17.0747 40.4207 17.1174 40.3798 17.1618C40.3551 17.1887 40.3311 17.2161 40.3079 17.2442C40.2687 17.292 40.275 17.3077 40.22 17.2744C40.0092 17.1463 39.765 17.0864 39.5189 17.1167C39.3728 17.1346 39.2307 17.1785 39.0957 17.2362C39.0498 17.2559 38.9434 17.3343 38.8944 17.335C38.8458 17.3358 38.741 17.2631 38.6909 17.2446C38.4206 17.1448 38.1292 17.1203 37.8451 17.1664C37.552 17.2139 37.2641 17.3309 37.0157 17.4925C36.8963 17.5702 36.7921 17.6563 36.7084 17.7719C36.6723 17.8218 36.6396 17.8746 36.5986 17.9209C36.5746 17.948 36.5272 17.9758 36.5143 18.01C36.522 17.9895 36.1938 17.863 36.1628 17.8549C35.9978 17.8118 35.8297 17.8205 35.6682 17.8737C35.3643 17.9737 35.103 18.1979 34.8882 18.4278C34.7779 18.5459 34.6814 18.6765 34.5995 18.8155C34.5602 18.8821 34.5243 18.9507 34.4914 19.0206C34.4755 19.0545 34.465 19.0969 34.444 19.1275C34.417 19.1668 34.3988 19.1676 34.3498 19.1847C34.1012 19.2718 33.8745 19.4193 33.7018 19.6186C33.5272 19.8201 33.4139 20.0684 33.3664 20.3298C33.3636 20.3452 33.362 20.409 33.353 20.4174C33.3406 20.4288 33.2906 20.4238 33.2717 20.426C33.2062 20.4337 33.1411 20.4451 33.0769 20.4603C32.9586 20.4883 32.8435 20.5295 32.7346 20.5834C32.3099 20.7935 32.0063 21.1874 31.8577 21.6306C31.7017 22.0957 31.7045 22.6286 31.8909 23.085C31.921 23.1587 31.9568 23.2303 31.9989 23.298C32.0247 23.3395 32.033 23.3396 32.0163 23.3832C31.9976 23.4318 31.9634 23.4789 31.9412 23.5263C31.8688 23.681 31.8181 23.845 31.7861 24.0125C31.7336 24.2874 31.7076 24.5762 31.7594 24.8531C31.7834 24.9817 31.8253 25.1074 31.8892 25.2219C31.9218 25.2803 31.9599 25.3357 32.003 25.3869C32.0253 25.4135 32.0491 25.4389 32.0739 25.4633C32.0881 25.4772 32.1067 25.4894 32.1188 25.5049C32.1482 25.5427 32.1544 25.5116 32.1392 25.5672C32.118 25.6449 32.0698 25.7216 32.0403 25.7973C32.0099 25.8752 31.9825 25.9542 31.9573 26.034C31.9064 26.1956 31.8634 26.3601 31.8365 26.5274C31.7848 26.8487 31.7939 27.191 31.9459 27.4859C32.0108 27.612 32.1041 27.7226 32.2171 27.8087C32.2724 27.8508 32.3324 27.8871 32.3952 27.9169C32.4276 27.9322 32.4688 27.9388 32.4835 27.97C32.4994 28.0036 32.4759 28.0704 32.4705 28.1079C32.4238 28.4347 32.4003 28.7778 32.4975 29.098C32.5869 29.3929 32.7839 29.6533 33.0396 29.8257C33.5357 30.1601 34.2045 30.1413 34.7258 29.8735C34.8617 29.8037 34.9888 29.7171 35.1022 29.6149C35.3909 30.0036 35.9852 29.9913 36.4072 29.8805C36.933 29.7425 37.3549 29.3769 37.598 28.8966C37.9304 29.3012 38.628 29.1699 38.8585 28.7309C38.9149 28.6235 38.9483 28.5051 38.9648 28.3853C38.9735 28.3223 38.9679 28.2587 38.9745 28.1962C38.9828 28.1166 39.036 28.0392 39.0666 27.9621C39.1261 27.8122 39.1631 27.6573 39.1647 27.4955C39.1655 27.4111 39.1548 27.3288 39.1468 27.245C39.1396 27.1696 39.1605 27.0993 39.1724 27.0249C39.0375 27.0471 38.8732 27.0107 38.7462 26.9716C38.6215 26.9333 38.5047 26.8322 38.4167 26.7399C38.2124 26.5256 38.0876 26.2446 38.0022 25.965C37.8148 25.3513 37.8916 24.615 38.5089 24.2782C38.7965 24.1213 39.658 24.1218 40.0005 24.1993C40.3606 24.2809 40.7689 25.0755 40.789 25.1502C40.8014 25.1964 40.7951 25.2536 40.8376 25.2844C40.9309 25.3521 41.0848 25.2346 41.1537 25.1766C41.2725 25.0765 41.3572 24.9433 41.4306 24.8083C41.5905 24.5141 41.7194 24.1987 41.8104 23.8767C41.8806 23.6284 41.9255 23.3724 42.0173 23.1305C42.1086 22.8898 42.2525 22.6746 42.4763 22.5382C42.7197 22.3899 42.9987 22.3117 43.266 22.2185C43.5309 22.1261 43.7912 22.0132 43.9965 21.8171C44.0417 21.774 44.0855 21.7282 44.1219 21.6774C44.1506 21.6374 44.1789 21.5607 44.2226 21.5353C44.2906 21.4957 44.3898 21.5985 44.4485 21.6358C44.7384 21.82 44.9803 22.0768 45.1754 22.3573C45.3694 22.6363 45.5285 22.9048 45.6579 23.2163C45.7538 23.4474 45.8137 23.7433 45.9825 23.9326C46.0578 24.0172 46.6178 24.0683 46.7992 23.9945C46.9806 23.9207 47.1838 23.729 47.2447 23.6089C47.307 23.486 47.3219 23.3509 47.2953 23.2163C47.2796 23.1371 47.2477 23.0631 47.2302 22.9854C47.2154 22.92 47.2021 22.8583 47.1703 22.7984C47.11 22.685 47.007 22.6035 46.8828 22.5694C47.0121 22.4503 47.1191 22.3077 47.1932 22.1484C47.2702 21.9829 47.3355 21.7816 47.354 21.5999C47.369 21.4523 47.3458 21.2995 47.265 21.1726C47.1803 21.0396 47.0302 20.9528 46.9003 20.8699C47.0987 20.7146 47.2685 20.5258 47.4081 20.3168C47.6796 19.9104 47.8475 19.398 47.7096 18.9134Z" fill="#252538"/>
<path fill-rule="evenodd" clip-rule="evenodd" d="M35.2604 54.392L45.817 82.3254L53.2164 102.914H57.4355L47.2643 54.392L35.2604 54.392Z" fill="#252538"/>
<path fill-rule="evenodd" clip-rule="evenodd" d="M32.6512 54.392C32.5364 63.9765 32.6194 76.8806 32.352 77.478C32.1738 77.8763 26.6297 82.4144 15.7197 91.0924L17.8944 94.7903C30.847 86.4375 37.6544 81.7046 38.3167 80.5917C39.31 78.9224 44.3003 63.5613 46.8967 54.392H32.6512Z" fill="#585886"/>
<path fill-rule="evenodd" clip-rule="evenodd" d="M11.8939 93.5809L15.567 90.7854L18.5307 94.3174C18.7586 96.98 19.6402 99.9662 21.1754 103.276L20.5027 103.84L15.1398 97.4492L13.6415 94.9805L13.3051 95.2628L11.8939 93.5809Z" fill="#252538"/>
<path fill-rule="evenodd" clip-rule="evenodd" d="M52.8248 106.866L53.0443 102.255H57.655C59.8413 103.792 62.6955 105.036 66.2177 105.988V106.866H57.8746L55.0203 106.427V106.866H52.8248Z" fill="#252538"/>
<path fill-rule="evenodd" clip-rule="evenodd" d="M53.8706 51.6148L60.8741 56.7576C62.7736 57.2702 64.3605 57.9079 65.635 58.6707C65.936 58.945 66.2998 59.5005 65.0513 59.4045C63.8028 59.3085 62.4853 59.2637 62.313 59.6895C62.1408 60.1154 62.8963 60.6246 62.548 61.1992C62.3159 61.5823 61.2191 60.6218 59.2577 58.3178L52.3224 55.4419L53.8706 51.6148ZM26.9809 51.7923L31.569 51.8103C28.736 60.9557 27.2066 65.8081 26.9809 66.3677C26.4728 67.6268 27.5479 69.5443 28.0076 70.5747C26.5103 71.2448 26.6698 68.7634 24.7809 69.6421C23.0568 70.4443 21.7453 71.8976 19.7533 70.6685C19.5084 70.5174 19.24 69.9485 19.8885 69.5039C21.5039 68.3962 23.8318 66.4575 24.1464 65.8194C24.5753 64.9492 25.5201 60.2735 26.9809 51.7923Z" fill="#B28B67"/>
<path fill-rule="evenodd" clip-rule="evenodd" d="M40.0197 32.5399L41.9183 32.2143C48.9624 38.2994 51.8556 49.9896 60.49 56.1824L58.4118 58.7584C43.4328 56.9038 39.7201 42.6445 40.0197 32.5399Z" fill="#252538"/>
<path fill-rule="evenodd" clip-rule="evenodd" d="M31.7435 56.3986C39.3559 56.3986 44.9554 56.3986 48.542 56.3986C49.3097 56.3986 49.165 55.2902 49.054 54.7309C47.7734 48.2759 42.7743 41.3176 42.7743 32.129L37.9288 31.3692C33.9209 37.815 32.5349 45.7511 31.7435 56.3986Z" fill="#EEEEF3"/>
<path fill-rule="evenodd" clip-rule="evenodd" d="M31.8785 37.7052C31.1748 37.5029 30.6175 37.0311 30.2066 36.2898C28.4356 33.0941 29.0752 31.3347 30.9679 30.7563C32.8606 30.178 34.5484 31.3693 37.564 31.3693C37.728 31.3693 37.8782 31.3795 38.0146 31.4001L39.5315 31.4867C43.8837 46.2366 45.084 56.0774 43.1324 61.0094H29.9106C29.1273 62.836 28.3776 64.3729 27.6618 65.62H24.0591C23.72 54.657 26.3265 45.352 31.8785 37.7052Z" fill="#585886"/>
<path fill-rule="evenodd" clip-rule="evenodd" d="M32.7898 53.4342C33.2056 56.9134 33.8815 59.4384 34.8173 61.0094H29.9106C30.8244 58.8786 31.7841 56.3536 32.7898 53.4342H32.7898Z" fill="black" fill-opacity="0.1"/>
<path fill-rule="evenodd" clip-rule="evenodd" d="M78.6041 26.9264C77.5924 25.7389 76.9077 24.2836 77.0221 22.6528C77.3518 17.9542 83.8924 18.9878 85.1647 21.3593C86.437 23.7307 86.2858 29.7461 84.6415 30.17C83.9857 30.339 82.5888 29.925 81.167 29.068L82.0594 35.3815H76.7901L78.6041 26.9264Z" fill="#B28B67"/>
<path fill-rule="evenodd" clip-rule="evenodd" d="M82.8408 21.7031C82.1258 22.1031 81.6169 22.8526 81.0043 23.8357C80.8551 23.7771 80.6926 23.7449 80.5226 23.7449C79.7951 23.7449 79.2053 24.3347 79.2053 25.0622C79.2053 25.4316 79.3573 25.7654 79.6021 26.0046C79.2973 26.4348 78.9557 26.8843 78.5642 27.3481C77.1035 26.4717 76.017 23.9173 77.4117 21.4515C78.6118 16.5121 85.4118 19.5779 86.72 18.7449C87.006 20.5373 86.0836 21.9825 82.8408 21.7031Z" fill="#585886"/>
<path fill-rule="evenodd" clip-rule="evenodd" d="M76.5778 54.4422L87.354 81.717L94.5816 104.776H97.4357L86.3862 54.4422L76.5778 54.4422Z" fill="#997659"/>
<path fill-rule="evenodd" clip-rule="evenodd" d="M74.4078 54.4422C74.2931 64.0267 72.6196 76.9308 72.3522 77.5282C72.174 77.9265 66.0207 82.9916 53.8923 92.7235L55.8581 94.8271C70.1684 86.4832 77.6547 81.7548 78.3169 80.642C79.3102 78.9727 82.5441 63.6116 85.1405 54.4422H74.4078Z" fill="#B28B67"/>
<path fill-rule="evenodd" clip-rule="evenodd" d="M53.6294 92.0215C52.9692 92.2548 52.5144 92.476 52.265 92.6853C51.9618 92.9398 51.5616 93.3617 51.0645 93.951C51.3597 94.3028 54.013 97.4649 59.0244 103.437C60.0462 103 60.3667 102.488 59.9861 101.903C59.6054 101.317 59.2938 100.827 59.0514 100.431L57.3174 94.373C57.284 94.2564 57.1624 94.189 57.0459 94.2223C57.0439 94.2229 57.0419 94.2235 57.0399 94.2241L56.1146 94.5176C55.4726 94.2184 55.0227 93.9151 54.7647 93.6077C54.5552 93.358 54.3666 92.9284 54.1991 92.3191L54.1991 92.3191C54.1348 92.0852 53.8931 91.9478 53.6593 92.0121C53.6492 92.0148 53.6392 92.018 53.6294 92.0215Z" fill="#585886"/>
<path fill-rule="evenodd" clip-rule="evenodd" d="M93.4131 103.711C93.1674 104.367 93.0446 104.857 93.0446 105.183C93.0446 105.579 93.1106 106.157 93.2425 106.916C93.7018 106.916 97.8296 106.916 105.626 106.916C105.948 105.852 105.762 105.278 105.069 105.193C104.375 105.108 103.799 105.032 103.341 104.963L97.585 102.397C97.4743 102.348 97.3445 102.398 97.2951 102.509C97.2943 102.511 97.2934 102.512 97.2927 102.514L96.9227 103.412C96.2808 103.711 95.7593 103.861 95.358 103.861C95.032 103.861 94.5817 103.729 94.0073 103.466L94.0073 103.466C93.7868 103.365 93.5262 103.462 93.4251 103.682C93.4207 103.692 93.4167 103.701 93.4131 103.711Z" fill="#585886"/>
<path fill-rule="evenodd" clip-rule="evenodd" d="M83.8231 102.401L97.3927 100.928L87.336 54.4422H75.1823L83.8231 102.401Z" fill="#585886"/>
<path fill-rule="evenodd" clip-rule="evenodd" d="M56.6993 89.3298L65.6001 99.8653C74.9751 89.6261 80.4408 82.945 81.9971 79.822C83.5534 76.699 84.9525 68.2391 86.1942 54.4422H72.5113C71.833 66.5801 71.3758 72.9315 71.1396 73.4963C70.9035 74.0612 66.09 79.339 56.6993 89.3298Z" fill="#585886"/>
<path fill-rule="evenodd" clip-rule="evenodd" d="M96.3876 51.7883L102.84 58.0425C104.718 58.8381 106.256 59.7167 107.455 60.6782C107.725 61.0014 108.018 61.6206 106.749 61.3435C105.481 61.0664 104.134 60.8316 103.895 61.2416C103.657 61.6516 104.359 62.2798 103.919 62.8163C103.625 63.174 102.637 62.0363 100.954 59.4031L94.2444 55.4727L96.3876 51.7883ZM64.8348 46.1281L69.8226 46.1467C66.0237 58.3752 64.0072 64.7778 63.7729 65.3546C63.2459 66.6524 64.3612 68.629 64.8382 69.6911C63.2847 70.3818 63.4502 67.824 61.4906 68.7298C59.7019 69.5566 58.3412 71.0547 56.2747 69.7878C56.0206 69.6321 55.7422 69.0456 56.4149 68.5873C58.0908 67.4455 60.506 65.4472 60.8323 64.7895C61.2773 63.8925 62.6115 57.672 64.8348 46.1281Z" fill="#B28B67"/>
<path fill-rule="evenodd" clip-rule="evenodd" d="M80.0335 32.07L82.0031 31.7344C85.1059 42.6317 101.048 50.0598 102.027 54.1335C102.385 55.6274 101.303 56.3826 101.862 56.8376L99.3021 58.6997C98.8686 58.1971 97.9434 59.1164 96.0113 58.4734C94.0793 57.8303 80.0335 44.9734 80.0335 32.07Z" fill="#585886"/>
<path fill-rule="evenodd" clip-rule="evenodd" d="M83.3466 33.5189C83.1196 47.9461 91.5137 51.6263 89.644 57.4139C88.1 62.1932 73.3213 67.331 70.764 62.6461C69.7288 60.7497 69.2591 58.4562 69.2058 55.9626C68.5522 57.8783 68.0353 59.5275 67.655 60.9102C66.999 63.2956 64.4559 63.6747 64.4559 64.5936L61.1053 63.6747C61.3326 62.4263 59.7531 61.8185 60.1766 59.0295C62.0742 46.5331 67.1726 37.4749 75.472 31.8548L75.5598 30.6079C75.5946 30.1244 76.0139 29.7599 76.4975 29.7927L82.6982 30.2235C83.1821 30.2563 83.5471 30.6758 83.5135 31.1597C83.5135 31.16 83.5134 31.1602 83.5126 31.1604L83.3466 33.5189Z" fill="#252538"/>
</svg>
